<?xml version="1.0" encoding="UTF-8"?>
<svg width="127px" height="45px" viewBox="0 0 127 45" version="1.1" xmlns="http://www.w3.org/2000/svg" xmlns:xlink="http://www.w3.org/1999/xlink">
    <!-- Generator: Sketch 63.1 (92452) - https://sketch.com -->
    <title>match4healthcare-logo-final</title>
    <desc>Created with Sketch.</desc>
    <g id="Page-1" stroke="none" stroke-width="1" fill="none" fill-rule="evenodd">
        <g id="match4healthcare-logo-final" fill-rule="nonzero">
            <path d="M124.425,0.135849057 L124.425,18.8915094 L126.464858,18.8915094 L126.464858,23.7948113 L124.425,23.7948113 L124.425,28.8488208 L117.258962,28.8488208 L117.258962,23.7948113 L108.74717,23.7948113 L108.74717,18.8915094 L114.936792,0.127358491 L124.425,0.135849057 Z M117.258962,18.8915094 L117.258962,6.67995283 L114.094104,18.8915094 L117.258962,18.8915094 Z" id="Shape" fill="#101441"></path>
            <path d="M50.0816038,30.4556604 L50.0816038,33.6523585 C50.3682731,33.3807174 50.7029771,33.1647794 51.0686321,33.015566 C51.4307091,32.8723418 51.8170047,32.8002717 52.2063679,32.8033019 C52.7716676,32.7868366 53.3271344,32.9536256 53.7898585,33.2787736 C54.1820196,33.5322882 54.4669366,33.9214985 54.5900943,34.371934 C54.7110392,35.1190489 54.7593779,35.8761173 54.734434,36.6325472 L54.734434,44.6667453 L51.1875,44.6667453 L51.1875,36.4691038 C51.2105215,36.0306788 51.1762705,35.5911235 51.0856132,35.1615566 C51.0107489,34.9821047 50.8353617,34.8652357 50.6409198,34.8652357 C50.4464779,34.8652357 50.2710908,34.9821047 50.1962264,35.1615566 C50.0981192,35.5489831 50.0594702,35.9490713 50.0816038,36.3481132 L50.0816038,44.6625 L46.5346698,44.6625 L46.5346698,30.4408019 L50.0816038,30.4556604 Z" id="Path" fill="#ED1171"></path>
            <path d="M63.9891509,39.0566038 L59.3978774,39.0566038 L59.3978774,41.5783019 C59.3736945,41.9219285 59.4118069,42.2670972 59.5103774,42.5971698 C59.5975512,42.7546449 59.7708793,42.8442396 59.9497642,42.8242925 C60.1765759,42.8494759 60.3942395,42.7274135 60.4910377,42.5207547 C60.6052752,42.1412998 60.6512713,41.7445837 60.6268868,41.3490566 L60.6268868,39.8122642 L63.9891509,39.8122642 L63.9891509,40.6740566 C64.0041889,41.2299442 63.9586373,41.7858162 63.8533019,42.3318396 C63.7290097,42.7846234 63.5121813,43.206716 63.2165094,43.5714623 C62.8871617,44.0077291 62.4475691,44.3484133 61.9429245,44.5584906 C61.3289661,44.7960473 60.6735637,44.9079276 60.015566,44.8875 C59.3398449,44.8997176 58.6674795,44.7896941 58.0308962,44.5627358 C57.5158983,44.3854981 57.0553122,44.0784407 56.6936321,43.6712264 C56.3821799,43.3105312 56.1551954,42.8848445 56.0292453,42.4252358 C55.886933,41.7751523 55.825618,41.1099557 55.8466981,40.4448113 L55.8466981,37.0485849 C55.8466981,36.029717 55.9839623,35.2266509 56.2584906,34.6393868 C56.5377446,34.0448026 57.0160291,33.5665181 57.6106132,33.2872642 C58.2838442,32.9625254 59.0241527,32.8010829 59.7714623,32.8160377 C60.6279601,32.7831835 61.4777791,32.9787883 62.2337264,33.382783 C62.841538,33.7177838 63.3203175,34.2458603 63.5943396,34.8834906 C63.8561321,35.5075472 63.9863208,36.3841981 63.9849057,37.5134434 L63.9891509,39.0566038 Z M60.4337264,37.1462264 L60.4337264,36.2971698 C60.4557585,35.9053699 60.4228931,35.5124138 60.3360849,35.129717 C60.2822995,34.9601451 60.1185989,34.8501313 59.9412736,34.8643868 C59.6950472,34.8643868 59.5443396,34.9408019 59.4849057,35.0893868 C59.4043545,35.4866013 59.3751062,35.8925103 59.3978774,36.2971698 L59.3978774,37.1462264 L60.4337264,37.1462264 Z" id="Shape" fill="#ED1171"></path>
            <path d="M68.3193396,37.5325472 L64.9910377,37.5325472 L64.9910377,36.7514151 C64.9910377,35.85 65.0950472,35.1544811 65.303066,34.6648585 C65.5712955,34.111131 66.009307,33.6575028 66.5533019,33.3700472 C67.1801887,32.9964623 67.9938679,32.8089623 68.9943396,32.8075472 C70.1929245,32.8075472 71.0971698,33.0198113 71.7070755,33.4443396 C72.2675518,33.7978653 72.662854,34.3613811 72.8044811,35.0087264 C72.9275943,35.6242925 72.9891509,36.8978774 72.9891509,38.8294811 L72.9891509,44.6773585 L69.5398585,44.6773585 L69.5398585,43.6393868 C69.1676884,44.4352792 68.3521999,44.9280923 67.4745283,44.8875 C66.8687068,44.8891924 66.2766146,44.707124 65.7764151,44.3653302 C65.2584906,44.017217 64.9995283,43.2544811 64.9995283,42.0771226 L64.9995283,41.121934 C64.9995283,40.2502358 65.1367925,39.6558962 65.4113208,39.3389151 C65.6858491,39.021934 66.3679245,38.6533019 67.4575472,38.2330189 C68.6228774,37.7745283 69.2448113,37.4688679 69.3275943,37.3096698 C69.4334121,36.9993484 69.4752915,36.6708119 69.4507075,36.3438679 C69.4507075,35.7339623 69.4054245,35.3377358 69.3148585,35.1551887 C69.2361203,34.9779517 69.0564338,34.8674403 68.8627358,34.8771226 C68.6228774,34.8771226 68.4721698,34.9556604 68.4148585,35.1106132 C68.3339329,35.5077764 68.3046811,35.9137338 68.3278302,36.3183962 L68.3193396,37.5325472 Z M69.442217,39.1308962 C68.8761792,39.5455189 68.5471698,39.8936321 68.4551887,40.1752358 C68.3502136,40.5703035 68.3044322,40.9787596 68.3193396,41.3872642 C68.3193396,41.9900943 68.3582547,42.3792453 68.4360849,42.554717 C68.5209242,42.7339977 68.7101692,42.8397021 68.9073113,42.8179245 C69.0788511,42.840273 69.2467946,42.7563013 69.3318396,42.6056604 C69.3997642,42.4676887 69.4337264,42.1068396 69.4337264,41.5209906 L69.442217,39.1308962 Z" id="Shape" fill="#ED1171"></path>
            <polygon id="Path" fill="#ED1171" points="77.8627358 30.4556604 77.8627358 44.6773585 74.2096698 44.6773585 74.2096698 30.4556604"></polygon>
            <path d="M82.8764151,31.4639151 L82.8764151,33.3 L83.8443396,33.3 L83.8443396,35.1445755 L82.8870283,35.1445755 L82.8870283,41.3787736 C82.8870283,42.1457547 82.9266509,42.570283 83.0058962,42.6523585 C83.084434,42.7393868 83.4134434,42.7839623 83.9929245,42.7839623 L83.9929245,44.6625 L82.5622642,44.6625 C81.9837638,44.677873 81.4050077,44.6437868 80.8323113,44.5606132 C80.4900909,44.4954923 80.173496,44.3342498 79.9195755,44.0957547 C79.6706072,43.8773674 79.4980436,43.5850508 79.4271226,43.2615566 C79.3407945,42.5290774 79.3088674,41.7912077 79.3316038,41.0540094 L79.3316038,35.1445755 L78.5674528,35.1445755 L78.5674528,33.3 L79.3316038,33.3 L79.3316038,31.4639151 L82.8764151,31.4639151 Z" id="Path" fill="#ED1171"></path>
            <path d="M88.1617925,30.4556604 L88.1617925,33.6523585 C88.4494587,33.3809631 88.7848081,33.1650729 89.1509434,33.015566 C89.5122834,32.8723536 89.8978828,32.8002789 90.2865566,32.8033019 C90.8525557,32.7865284 91.4087916,32.9533247 91.8721698,33.2787736 C92.2643309,33.5322882 92.5492479,33.9214985 92.6724057,34.371934 C92.7933506,35.1190489 92.8416892,35.8761173 92.8167453,36.6325472 L92.8167453,44.6667453 L89.2698113,44.6667453 L89.2698113,36.4691038 C89.2928329,36.0306788 89.2585818,35.5911235 89.1679245,35.1615566 C89.0921963,34.9824531 88.916625,34.8660677 88.7221698,34.8660677 C88.5277146,34.8660677 88.3521434,34.9824531 88.2764151,35.1615566 C88.1783079,35.5489831 88.1396589,35.9490713 88.1617925,36.3481132 L88.1617925,44.6625 L84.6148585,44.6625 L84.6148585,30.4408019 L88.1617925,30.4556604 Z" id="Path" fill="#ED1171"></path>
            <path d="M101.886792,37.4179245 L98.5330189,37.4179245 L98.5330189,36.0849057 C98.5536527,35.7628739 98.514797,35.4397959 98.4183962,35.1318396 C98.3448091,34.9663345 98.1743201,34.865746 97.9938679,34.8813679 C97.8260444,34.8608789 97.6627497,34.9450515 97.5820755,35.0936321 C97.4899334,35.4125712 97.4547251,35.7452543 97.478066,36.0764151 L97.478066,41.5740566 C97.4594176,41.893234 97.5131124,42.2125008 97.6351415,42.5080189 C97.7116126,42.6973794 97.8957837,42.821001 98.1,42.8200472 C98.317657,42.8354212 98.5182695,42.7019702 98.5882075,42.495283 C98.6955677,42.0949595 98.7385578,41.6801051 98.715566,41.2662736 L98.715566,39.878066 L101.886792,39.878066 C101.892812,40.5777867 101.858794,41.2772787 101.784906,41.9731132 C101.703218,42.4893415 101.501859,42.9792908 101.196934,43.4037736 C100.875288,43.8845048 100.427247,44.2671764 99.9021226,44.5096698 C99.278349,44.7762529 98.6039851,44.9037374 97.9259434,44.8832547 C96.9254717,44.8832547 96.1323113,44.7120283 95.5464623,44.3695755 C94.9787508,44.047677 94.5399886,43.5391627 94.304717,42.9304245 C94.0599057,42.3120283 93.9382075,41.4353774 93.9396104,40.3004717 L93.9396104,36.9891509 C93.9396104,36 94.0393868,35.2549528 94.2389151,34.7497642 C94.4384434,34.2445755 94.8629717,33.7988208 95.5125,33.4040094 C96.2320109,32.9888399 97.0532197,32.7829863 97.8834906,32.8096698 C98.7126009,32.7862457 99.532383,32.9895399 100.254481,33.3976415 C100.851459,33.7238008 101.314417,34.2498887 101.562028,34.8834906 C101.778538,35.4778302 101.886792,36.3226415 101.886792,37.4179245 Z" id="Path" fill="#ED1171"></path>
            <path d="M106.102358,37.5325472 L102.774057,37.5325472 L102.774057,36.7514151 C102.774057,35.85 102.878066,35.1544811 103.086085,34.6648585 C103.354314,34.111131 103.792326,33.6575028 104.336321,33.3700472 C104.963208,32.9964623 105.776887,32.8089623 106.777358,32.8075472 C107.977358,32.8075472 108.881604,33.0198113 109.490094,33.4443396 C110.050541,33.7983261 110.446376,34.3615113 110.589623,35.0087264 C110.711321,35.6242925 110.77217,36.8978774 110.77217,38.8294811 L110.77217,44.6773585 L107.322877,44.6773585 L107.322877,43.6393868 C106.951604,44.4360851 106.135515,44.9292612 105.257547,44.8875 C104.651726,44.8891924 104.059633,44.707124 103.559434,44.3653302 C103.041509,44.017217 102.782547,43.2544811 102.782547,42.0771226 L102.782547,41.121934 C102.782547,40.2502358 102.919811,39.6558962 103.19434,39.3389151 C103.468868,39.021934 104.150943,38.6533019 105.240566,38.2330189 C106.405896,37.7745283 107.02783,37.4688679 107.110613,37.3096698 C107.216431,36.9993484 107.25831,36.6708119 107.233726,36.3438679 C107.233726,35.7339623 107.188443,35.3377358 107.097877,35.1551887 C107.019139,34.9779517 106.839453,34.8674403 106.645755,34.8771226 C106.405896,34.8771226 106.257311,34.9556604 106.197877,35.1106132 C106.116952,35.5077764 106.0877,35.9137338 106.110849,36.3183962 L106.102358,37.5325472 Z M107.225236,39.1308962 C106.659198,39.5455189 106.330189,39.8936321 106.238208,40.1752358 C106.133232,40.5703035 106.087451,40.9787596 106.102358,41.3872642 C106.102358,41.9900943 106.140566,42.3785377 106.221226,42.554717 C106.305307,42.7336598 106.493789,42.8394146 106.69033,42.8179245 C106.865462,42.8449192 107.03894,42.7602962 107.125472,42.6056604 C107.191274,42.4676887 107.225236,42.1068396 107.225236,41.5209906 L107.225236,39.1308962 Z" id="Shape" fill="#ED1171"></path>
            <path d="M115.539623,33.0198113 L115.399528,34.5502358 C115.916038,33.4521226 116.6625,32.8712264 117.638915,32.8075472 L117.638915,36.9084906 C116.989387,36.9084906 116.5125,36.9962264 116.208255,37.1716981 C115.92226,37.3223354 115.71667,37.5907665 115.645755,37.9061321 C115.550775,38.6229609 115.515277,39.34642 115.539623,40.0691038 L115.539623,44.6709906 L111.992689,44.6709906 L111.992689,33.0198113 L115.539623,33.0198113 Z" id="Path" fill="#ED1171"></path>
            <path d="M126.464858,39.0566038 L121.871462,39.0566038 L121.871462,41.5783019 C121.846481,41.9220877 121.885343,42.2675279 121.986085,42.5971698 C122.073259,42.7546449 122.246587,42.8442396 122.425472,42.8242925 C122.651683,42.8491901 122.868585,42.727076 122.964623,42.5207547 C123.079937,42.1415232 123.125955,41.7446125 123.100472,41.3490566 L123.100472,39.8122642 L126.464858,39.8122642 L126.464858,40.6740566 C126.479333,41.2300253 126.433068,41.7859127 126.326887,42.3318396 C126.203586,42.7850085 125.986656,43.2072972 125.690094,43.5714623 C125.359802,44.0067953 124.920485,44.3472656 124.416509,44.5584906 C123.802444,44.7956576 123.147121,44.9075244 122.489151,44.8875 C121.813416,44.8999046 121.141018,44.7898757 120.504481,44.5627358 C119.989058,44.3851327 119.527871,44.0781618 119.165094,43.6712264 C118.855051,43.3098878 118.628881,42.8843691 118.50283,42.4252358 C118.359611,41.7752715 118.29758,41.1100496 118.31816,40.4448113 L118.31816,37.0485849 C118.31816,36.029717 118.455425,35.2266509 118.729953,34.6393868 C119.009798,34.0452183 119.487907,33.5671097 120.082075,33.2872642 C120.755385,32.962753 121.495638,32.8013225 122.242925,32.8160377 C123.099471,32.7826699 123.949422,32.9783053 124.705189,33.382783 C125.318531,33.7125412 125.804136,34.2377422 126.084906,34.875 C126.343868,35.4990566 126.474057,36.3757075 126.475472,37.5049528 L126.464858,39.0566038 Z M122.900943,37.1462264 L122.900943,36.2971698 C122.922154,35.9054884 122.890021,35.5127415 122.805425,35.129717 C122.750979,34.960641 122.587729,34.8509299 122.410613,34.8643868 C122.164387,34.8643868 122.011557,34.9408019 121.952123,35.0893868 C121.871571,35.4866013 121.842323,35.8925103 121.865094,36.2971698 L121.865094,37.1462264 L122.900943,37.1462264 Z" id="Shape" fill="#ED1171"></path>
            <path d="M51.1662736,13.5212264 L51.0856132,14.9794811 C51.4022563,14.4455122 51.8464174,13.9984338 52.3783019,13.6783019 C52.8999811,13.3873338 53.4898323,13.2407869 54.0870283,13.2537736 C55.3351415,13.2537736 56.317217,13.8318396 57.0332547,14.9879717 C57.3752732,14.4560229 57.833154,14.008301 58.3726415,13.6783019 C58.870555,13.3915221 59.4367945,13.244828 60.0113208,13.2537736 C60.7124429,13.22308 61.4043197,13.4228893 61.9811321,13.8226415 C62.4692382,14.1626685 62.8229409,14.6628087 62.9808962,15.2363208 C63.1224057,15.7938679 63.1931604,16.7009434 63.1931604,17.9575472 L63.1931604,28.8488208 L58.6613208,28.8488208 L58.6613208,18.8575472 C58.6613208,17.55 58.6167453,16.7398585 58.5275943,16.4271226 C58.4703669,16.1367921 58.2049426,15.9352155 57.9099057,15.9580189 C57.6133618,15.9369035 57.3446215,16.1321881 57.2731132,16.4207547 C57.1768868,16.7278302 57.1287736,17.5400943 57.1287736,18.8575472 L57.1287736,28.8488208 L52.596934,28.8488208 L52.596934,19.1037736 C52.596934,17.6023585 52.5608491,16.7016509 52.4886792,16.4016509 C52.4359199,16.1152353 52.17113,15.9180316 51.8816038,15.9495283 C51.6785081,15.9475773 51.4846861,16.0344095 51.3509434,16.1872642 C51.2036732,16.3463687 51.1172354,16.5523161 51.1068396,16.7688679 C51.0912736,16.9966981 51.0841981,17.4799528 51.0856132,18.2186321 L51.0856132,28.8445755 L46.5580189,28.8445755 L46.5580189,13.5212264 L51.1662736,13.5212264 Z" id="Path" fill="#101441"></path>
            <path d="M68.9646226,19.4582547 L64.5856132,19.4582547 L64.5856132,18.4308962 C64.5856132,17.2436321 64.7228774,16.3287736 64.9974057,15.6863208 C65.271934,15.0438679 65.820283,14.4778302 66.6424528,13.9882075 C67.4660377,13.4957547 68.5365566,13.2495283 69.8540094,13.2495283 C71.4318396,13.2495283 72.6212264,13.5283019 73.4221698,14.0858491 C74.2231132,14.6433962 74.7042453,15.3254717 74.865566,16.1320755 C75.0268868,16.9457547 75.1082547,18.6183962 75.1096698,21.15 L75.1096698,28.8424528 L70.5693396,28.8424528 L70.5693396,27.4754717 C70.0823473,28.5239356 69.0092183,29.1733506 67.8544811,29.1183962 C67.0548673,29.1256315 66.2718466,28.8902812 65.6087264,28.4433962 C64.928066,27.9849057 64.5870283,26.9816038 64.5856132,25.4334906 L64.5856132,24.1747642 C64.5856132,23.0285377 64.7660377,22.245283 65.1290094,21.8398585 C65.4919811,21.434434 66.3877358,20.9377358 67.8205189,20.3837264 C69.353066,19.7823113 70.1731132,19.3775943 70.2806604,19.1695755 C70.3889151,18.9573113 70.4419811,18.532783 70.4419811,17.8959906 C70.4419811,17.0964623 70.3825472,16.575 70.2636792,16.3316038 C70.1602831,16.0985732 69.9239411,15.9533918 69.6693396,15.9665094 C69.353066,15.9665094 69.1556604,16.0683962 69.0792453,16.2721698 C69.0028302,16.4759434 68.9646226,17.0066038 68.9646226,17.8620283 L68.9646226,19.4582547 Z M70.4504717,21.5596698 C69.7033019,22.1073113 69.270283,22.5658019 69.1514151,22.9351415 C69.0140321,23.4548723 68.9539534,23.992005 68.9731132,24.5292453 C68.9731132,25.3209906 69.0240566,25.8346698 69.128066,26.0660377 C69.2394313,26.3009918 69.4872306,26.4397935 69.7457547,26.4120283 C69.9739751,26.4444755 70.1995257,26.3375478 70.3188679,26.1403302 C70.4051887,25.9591981 70.4490566,25.4837264 70.4504717,24.7139151 L70.4504717,21.5596698 Z" id="Shape" fill="#101441"></path>
            <path d="M81.6346698,11.4771226 L81.6346698,13.890566 L82.8933962,13.890566 L82.8933962,16.3167453 L81.6346698,16.3167453 L81.6346698,24.5165094 C81.6346698,25.5268868 81.6856132,26.0872642 81.7896226,26.2146226 C81.8936321,26.3419811 82.3266509,26.3865566 83.0886792,26.3865566 L83.0886792,28.859434 L81.2080189,28.859434 C80.4464003,28.8796461 79.6844447,28.8349088 78.9304245,28.7257075 C78.4807729,28.6397995 78.0648277,28.427778 77.7311321,28.1143868 C77.4032245,27.8274815 77.1762536,27.4427472 77.0837264,27.0169811 C76.9988208,26.6051887 76.9563679,25.6365566 76.9563679,24.1110849 L76.9563679,16.3167453 L75.9523585,16.3167453 L75.9523585,13.890566 L76.9563679,13.890566 L76.9563679,11.4771226 L81.6346698,11.4771226 Z" id="Path" fill="#101441"></path>
            <path d="M94.245283,19.3160377 L89.834434,19.3160377 L89.834434,17.5415094 C89.8610453,17.1176596 89.8099704,16.6925148 89.6837264,16.2870283 C89.5883779,16.070203 89.3657318,15.9379802 89.129717,15.9580189 C88.9064203,15.9331631 88.6907229,16.0477523 88.5863208,16.2466981 C88.4957547,16.4391509 88.4497642,16.8707547 88.4483491,17.5415094 L88.4483491,24.7712264 C88.4266354,25.1922846 88.4991522,25.6128821 88.6606132,26.0023585 C88.762608,26.2510804 89.0052363,26.4131125 89.2740566,26.4120283 C89.5571664,26.4280852 89.8167825,26.2550078 89.9108491,25.9875 C90.0240566,25.7044811 90.0799528,25.1660377 90.0785377,24.3721698 L90.0785377,22.5466981 L94.245283,22.5466981 C94.2546872,23.4682781 94.2107459,24.3896299 94.1136792,25.3061321 C94.0054787,25.9854718 93.7401845,26.630173 93.3389151,27.1889151 C92.9169545,27.8201631 92.3294882,28.3231811 91.6408019,28.6429245 C90.8200074,28.9934499 89.9326501,29.1607802 89.040566,29.1332547 C87.7245283,29.1332547 86.6816038,28.9082547 85.9117925,28.4582547 C85.1641456,28.0354546 84.5864521,27.3662304 84.2773585,26.5648585 C83.9561321,25.7511792 83.7962264,24.5978774 83.7976322,23.1049528 L83.7976322,18.7429245 C83.7976322,17.4424528 83.9285377,16.4603774 84.1903302,15.7966981 C84.4521226,15.1330189 85.0103774,14.542217 85.8650943,14.0242925 C86.8121727,13.4805953 87.8917508,13.2108845 88.9832547,13.245283 C90.0679299,13.213067 91.1408552,13.477262 92.0865566,14.009434 C92.9483491,14.5245283 93.5221698,15.1754717 93.8080189,15.9622642 C94.0938679,16.7490566 94.2396226,17.8669811 94.245283,19.3160377 Z" id="Path" fill="#101441"></path>
            <path d="M100.288443,10.1483491 L100.288443,14.3554245 C100.666329,13.9996467 101.106754,13.7168245 101.5875,13.5212264 C102.060829,13.3359461 102.565057,13.2423038 103.073349,13.245283 C103.817891,13.2234217 104.549631,13.4422736 105.159906,13.8693396 C105.67898,14.2008717 106.057024,14.7127443 106.221226,15.3063679 C106.348585,15.8497642 106.412264,16.8403302 106.412264,18.278066 L106.412264,28.8466981 L101.742453,28.8466981 L101.742453,18.0615566 C101.742453,17.167217 101.698585,16.5933962 101.610849,16.3400943 C101.511437,16.1039376 101.280167,15.9503663 101.023939,15.9503663 C100.767711,15.9503663 100.53644,16.1039376 100.437028,16.3400943 C100.336557,16.6033019 100.287028,17.1233491 100.288443,17.9002358 L100.288443,28.8382075 L95.6186321,28.8382075 L95.6186321,10.1483491 L100.288443,10.1483491 Z" id="Path" fill="#101441"></path>
            <path d="M39.0990566,11.1650943 C34.3065921,6.37894883 26.543172,6.37894883 21.7507075,11.1650943 L21.3261792,11.5896226 L20.9016509,11.1650943 C16.0966244,6.46619845 8.40575167,6.50678724 3.65058847,11.2561373 C-1.10457472,16.0054873 -1.15457127,23.6963046 3.5384434,28.5070755 L3.9629717,28.9316038 L15.0113208,39.990566 L15.0113208,39.990566 L17.5775943,42.5568396 L17.6200472,42.6035377 L18.7132075,43.7009434 C20.1524657,45.1333129 22.4786664,45.1333129 23.9179245,43.7009434 L24.9304245,42.6884434 L24.9304245,42.6884434 L27.615566,40.0033019 L27.615566,40.0033019 L38.6533019,28.9507075 L39.0778302,28.5261792 C43.8744314,23.7594046 43.899139,16.0069214 39.1330189,11.2096698 L39.0990566,11.1650943 Z" id="Path" fill="#ED1171"></path>
            <path d="M24.1386792,20.1162736 C23.3256333,19.6218502 22.3047912,19.6218502 21.4917453,20.1162736 C21.0424072,20.3800902 20.6818023,20.7717308 20.4558962,21.2412736 C20.1834817,21.7843673 19.873532,22.3078064 19.5283019,22.807783 L15.4485849,18.7747642 L11.4622642,22.7971698 C11.107972,22.3007092 10.7887987,21.780102 10.5070755,21.2391509 C10.2761497,20.7716741 9.91106549,20.3836797 9.45849057,20.1247642 C8.63332106,19.6664229 7.62660085,19.6817865 6.81580189,20.1650943 C6.12929067,20.5853804 5.6739266,21.2977648 5.58071702,22.0972959 C5.48750743,22.896827 5.766787,23.6948563 6.33820755,24.2617925 C6.53946065,24.4546428 6.76840424,24.6163342 7.01745283,24.7415094 C7.56152009,25.0165751 8.08567706,25.329367 8.58608491,25.6775943 L4.66981132,29.640566 L15.6693396,40.6485849 L19.5983491,36.6728774 C19.130549,36.3437882 18.6388549,36.0500489 18.1273585,35.7941038 C17.8759362,35.672923 17.6463956,35.5108099 17.4481132,35.3143868 C16.8766927,34.7474507 16.5974131,33.9494213 16.6906227,33.1498902 C16.7838323,32.3503591 17.2391963,31.6379747 17.9257075,31.2176887 C18.7318795,30.7136442 19.7516699,30.700549 20.5705189,31.1837264 C21.0275711,31.440956 21.3971979,31.8290641 21.6318396,32.2981132 C21.886169,32.8021945 22.1762991,33.2873997 22.5,33.75 L26.4926887,29.7169811 L22.4320755,25.6839623 C22.9285361,25.3296701 23.4491433,25.0104968 23.9900943,24.7287736 C24.2392399,24.6042693 24.4664947,24.440101 24.6629717,24.2426887 C25.2321498,23.6644556 25.5046869,22.8571176 25.4024187,22.0522211 C25.3001505,21.2473246 24.8343755,20.5337947 24.1386792,20.1162736 Z" id="Path" fill="#101441"></path>
        </g>
    </g>
</svg>